<mxGraphModel dx="0" dy="0" grid="1" gridSize="10" guides="1" tooltips="1" connect="1" arrows="1" fold="1" page="0" pageScale="1" background="none" math="0" shadow="0">
  <root>
    <mxCell id="0" />
    <mxCell id="1" parent="0" />
    <mxCell id="node0" parent="1" vertex="1" value="&lt;p style=&quot;margin:0px;margin-top:4px;text-align:center;&quot;&gt;&lt;b&gt;InsertionsMatching&lt;/b&gt;&lt;/p&gt;&lt;hr size=&quot;1&quot;/&gt;&lt;p style=&quot;margin:0 0 0 4px;line-height:1.6;&quot;&gt;+ meeting: List&amp;lt;Meeting&amp;gt;&lt;/p&gt;&lt;hr size=&quot;1&quot;/&gt;&lt;p style=&quot;margin:0 0 0 4px;line-height:1.6;&quot;&gt;+ setMeeting(List&amp;lt;Meeting&amp;gt;): void&lt;br/&gt;+ getMeeting(): List&amp;lt;Meeting&amp;gt;&lt;/p&gt;" style="verticalAlign=top;align=left;overflow=fill;fontSize=14;fontFamily=Helvetica;html=1;rounded=0;shadow=0;comic=0;labelBackgroundColor=none;strokeWidth=1;">
      <mxGeometry x="-116" y="407" width="233" height="107" as="geometry" />
    </mxCell>
    <mxCell id="node1" parent="1" vertex="1" value="&lt;p style=&quot;margin:0px;margin-top:4px;text-align:center;&quot;&gt;&lt;b&gt;Meeting&lt;/b&gt;&lt;/p&gt;&lt;hr size=&quot;1&quot;/&gt;&lt;p style=&quot;margin:0 0 0 4px;line-height:1.6;&quot;&gt;+ to_insertion: Insertion&lt;br/&gt;+ date: LocalDate&lt;br/&gt;+ location: String&lt;br/&gt;+ ACCEPTOR: boolean&lt;br/&gt;+ time: LocalTime&lt;br/&gt;+ SELECTOR: boolean&lt;br/&gt;+ to_insertion_id: String&lt;br/&gt;+ from_insertion_id: String&lt;br/&gt;+ from_insertion: Insertion&lt;br/&gt;+ speaker: boolean&lt;/p&gt;&lt;hr size=&quot;1&quot;/&gt;&lt;p style=&quot;margin:0 0 0 4px;line-height:1.6;&quot;&gt;+ getTo_insertion_id(): String&lt;br/&gt;+ switchSpeaker(): void&lt;br/&gt;+ setFrom_insertion_id(String): void&lt;br/&gt;+ setTo_insertion(Insertion): void&lt;br/&gt;+ setTime(LocalTime): void&lt;br/&gt;+ setTo_insertion_id(String): void&lt;br/&gt;+ setLocation(String): void&lt;br/&gt;+ selectorCanSpeak(): boolean&lt;br/&gt;+ getFrom_insertion_id(): String&lt;br/&gt;+ getDate(): LocalDate&lt;br/&gt;+ acceptorCanSpeak(): boolean&lt;br/&gt;+ setFrom_insertion(Insertion): void&lt;br/&gt;+ getTo_insertion(): Insertion&lt;br/&gt;+ setDate(LocalDate): void&lt;br/&gt;+ canISpeak(String): boolean&lt;br/&gt;+ getFrom_insertion(): Insertion&lt;br/&gt;+ getTime(): LocalTime&lt;br/&gt;+ toString(): String&lt;br/&gt;+ setSelectorAsSpeaker(): void&lt;br/&gt;+ getLocation(): String&lt;br/&gt;+ setAcceptorAsSpeaker(): void&lt;/p&gt;" style="verticalAlign=top;align=left;overflow=fill;fontSize=14;fontFamily=Helvetica;html=1;rounded=0;shadow=0;comic=0;labelBackgroundColor=none;strokeWidth=1;">
      <mxGeometry x="-117" y="-358" width="234" height="715" as="geometry" />
    </mxCell>
    <mxCell id="node2" parent="1" vertex="1" value="&lt;p style=&quot;margin:0px;margin-top:4px;text-align:center;&quot;&gt;&lt;i&gt;&amp;lt;&amp;lt;enumeration&amp;gt;&amp;gt;&lt;/i&gt;&lt;br/&gt;&lt;b&gt;OffertStatus&lt;/b&gt;&lt;/p&gt;&lt;hr size=&quot;1&quot;/&gt;&lt;p style=&quot;margin:0 0 0 4px;line-height:1.6;&quot;&gt;+ MATCHED: &lt;br/&gt;+ CLOSED: &lt;br/&gt;+ OPEN: &lt;br/&gt;+ TRADING: &lt;br/&gt;+ RETIRED: &lt;br/&gt;+ SELECTED: &lt;/p&gt;&lt;hr size=&quot;1&quot;/&gt;&lt;p style=&quot;margin:0 0 0 4px;line-height:1.6;&quot;&gt;+ values(): OffertStatus[]&lt;br/&gt;+ valueOf(String): OffertStatus&lt;/p&gt;" style="verticalAlign=top;align=left;overflow=fill;fontSize=14;fontFamily=Helvetica;html=1;rounded=0;shadow=0;comic=0;labelBackgroundColor=none;strokeWidth=1;">
      <mxGeometry x="162" y="-358" width="204" height="209" as="geometry" />
    </mxCell>
    <mxCell id="edge0" edge="1" value="" parent="1" source="node0" target="node1" style="html=1;rounded=1;edgeStyle=orthogonalEdgeStyle;dashed=0;startArrow=diamondThinstartSize=12;endArrow=openThin;endSize=12;strokeColor=#595959;exitX=0.500;exitY=0.000;exitDx=0;exitDy=0;entryX=0.500;entryY=1.000;entryDx=0;entryDy=0;">
      <mxGeometry width="50" height="50" relative="1" as="geometry">
        <Array as="points" />
      </mxGeometry>
    </mxCell>
    <mxCell id="label0" parent="edge0" vertex="1" connectable="0" value="1" style="edgeLabel;resizable=0;html=1;align=left;verticalAlign=top;strokeColor=default;">
      <mxGeometry x="-11" y="383" as="geometry" />
    </mxCell>
    <mxCell id="label4" parent="edge0" vertex="1" connectable="0" value="*" style="edgeLabel;resizable=0;html=1;align=left;verticalAlign=top;strokeColor=default;">
      <mxGeometry x="-9" y="362" as="geometry" />
    </mxCell>
    <mxCell id="label5" parent="edge0" vertex="1" connectable="0" value="meeting" style="edgeLabel;resizable=0;html=1;align=left;verticalAlign=top;strokeColor=default;">
      <mxGeometry x="0" y="362" as="geometry" />
    </mxCell>
  </root>
</mxGraphModel>